<?xml version="1.0" encoding="utf-8"?>
<!-- Generator: Adobe Illustrator 27.0.1, SVG Export Plug-In . SVG Version: 6.00 Build 0)  -->
<svg version="1.1" id="Layer_1" xmlns="http://www.w3.org/2000/svg" xmlns:xlink="http://www.w3.org/1999/xlink" x="0px" y="0px"
	 viewBox="0 0 117.4 28.2" style="enable-background:new 0 0 117.4 28.2;" xml:space="preserve">
<style type="text/css">
	.st0{display:none;}
	.st1{display:inline;fill:#FFFFFF;}
	.st2{display:inline;}
	.st3{fill:#FFFFFF;}
	.st4{font-family:'Copperplate-Bold';}
	.st5{font-size:18px;}
</style>
<g id="logo" transform="translate(0 8.292)" class="st0">
	<path id="text" class="st1" d="M44.5,15.8h-3.5V3h3.5V15.8z M40.6-1.2c0-0.6,0.2-1.1,0.6-1.5c0.4-0.4,0.9-0.6,1.5-0.6
		c0.6,0,1.1,0.2,1.5,0.6c0.4,0.4,0.6,1,0.6,1.5c0,0.6-0.2,1.1-0.6,1.5c-0.4,0.4-0.9,0.6-1.5,0.6c-0.6,0-1.1-0.2-1.5-0.6
		C40.9-0.1,40.6-0.7,40.6-1.2z M51.6,12c0.6,0.6,1.4,1,2.3,1c0.9,0,1.7-0.3,2.3-1c0.7-0.7,1-1.7,0.9-2.7c0.1-1-0.3-2-0.9-2.7
		c-0.6-0.6-1.4-1-2.3-1c-0.9,0-1.7,0.3-2.3,1c-0.7,0.7-1,1.7-1,2.7C50.6,10.3,51,11.3,51.6,12L51.6,12z M49.1,4.5
		c1.3-1.3,3-2,4.8-1.9c1.8-0.1,3.5,0.6,4.8,1.9c1.3,1.3,2,3,1.9,4.9c0.1,1.8-0.6,3.6-1.9,4.9c-1.3,1.3-3,2-4.8,1.9
		c-1.8,0.1-3.5-0.6-4.8-1.9c-1.3-1.3-2-3.1-1.9-4.9C47.2,7.5,47.9,5.8,49.1,4.5L49.1,4.5z M62.3,12.2l3-0.7c0,0.5,0.3,1,0.7,1.4
		c0.5,0.4,1.1,0.6,1.7,0.6c0.4,0,0.9-0.1,1.2-0.4c0.3-0.2,0.4-0.6,0.4-0.9c0-0.6-0.5-1.1-1.4-1.2l-1.7-0.4c-1-0.2-2-0.7-2.7-1.4
		c-0.6-0.7-0.9-1.5-0.9-2.4c0-1.1,0.5-2.2,1.4-3c0.9-0.8,2.2-1.3,3.4-1.2c0.8,0,1.6,0.1,2.3,0.4c0.6,0.2,1.1,0.5,1.5,1
		c0.3,0.3,0.6,0.7,0.8,1.2c0.2,0.4,0.3,0.8,0.4,1.2l-2.9,0.6c-0.1-0.5-0.3-0.9-0.6-1.2c-0.4-0.4-0.9-0.6-1.5-0.5
		c-0.4,0-0.8,0.1-1.2,0.4c-0.3,0.2-0.5,0.5-0.5,0.9c0,0.6,0.4,1,1.2,1.1L68.8,8c1.1,0.2,2.1,0.7,2.8,1.4c0.6,0.7,1,1.6,1,2.5
		c0,1.1-0.5,2.2-1.3,3c-1,0.9-2.3,1.3-3.7,1.3c-0.8,0-1.6-0.1-2.4-0.4c-0.6-0.2-1.2-0.6-1.7-1c-0.4-0.4-0.7-0.8-0.9-1.3
		C62.5,13,62.4,12.6,62.3,12.2L62.3,12.2z M78.8,12c0.6,0.6,1.4,1,2.3,1c0.9,0,1.7-0.3,2.3-1c0.7-0.7,1-1.7,1-2.7
		c0.1-1-0.3-2-0.9-2.7c-0.6-0.6-1.4-1-2.3-1c-0.9,0-1.7,0.3-2.3,1c-0.7,0.7-1,1.7-1,2.7C77.8,10.3,78.1,11.3,78.8,12L78.8,12z
		 M76.3,4.5c1.3-1.3,3-2,4.8-1.9c1.8-0.1,3.5,0.6,4.8,1.9c1.3,1.3,2,3,1.9,4.9c0.1,1.8-0.6,3.6-1.9,4.9c-1.3,1.3-3,2-4.8,1.9
		c-1.8,0.1-3.5-0.6-4.8-1.9c-1.3-1.3-2-3.1-1.9-4.9C74.3,7.5,75,5.8,76.3,4.5L76.3,4.5z M93.9,12c0.6,0.6,1.4,1,2.3,1
		c0.9,0,1.7-0.3,2.3-1c0.7-0.7,1-1.7,1-2.7c0.1-1-0.3-2-0.9-2.7c-0.6-0.6-1.4-1-2.3-1c-0.9,0-1.7,0.3-2.3,1c-0.7,0.7-1,1.7-1,2.7
		C92.9,10.3,93.3,11.3,93.9,12L93.9,12z M91.4,4.5c1.3-1.3,3-2,4.8-1.9c1.8-0.1,3.5,0.6,4.8,1.9c1.3,1.3,2,3,1.9,4.9
		c0.1,1.8-0.6,3.6-1.9,4.9c-1.3,1.3-3,2-4.8,1.9c-1.8,0.1-3.5-0.6-4.8-1.9c-1.3-1.3-2-3.1-1.9-4.9C89.5,7.5,90.2,5.8,91.4,4.5
		L91.4,4.5z M109.1,8.4v7.4h-3.4V3h3.4v1.6c0.4-0.6,0.9-1.1,1.6-1.4c0.7-0.3,1.4-0.5,2.1-0.5c1.3-0.1,2.6,0.4,3.4,1.4
		c0.8,1,1.2,2.3,1.2,3.7v8.1h-3.5V8.3c0-0.7-0.2-1.3-0.6-1.8c-0.5-0.5-1.1-0.8-1.8-0.7c-0.7,0-1.3,0.3-1.7,0.8
		C109.4,7,109.1,7.7,109.1,8.4L109.1,8.4z"/>
	<g id="loading" transform="translate(0 -8.292)" class="st2">
		<path id="Path_868" class="st3" d="M28.2,13.4h-5.4c-0.7,0-1.3,0.7-1.3,1.4c0,0.7,0.6,1.3,1.3,1.3h5.4c0.7,0,1.3-0.6,1.4-1.4
			C29.6,14,29,13.4,28.2,13.4z"/>
		<path id="Path_869" class="st3" d="M6.7,13.4H1.4c-0.7,0-1.4,0.6-1.4,1.3s0.6,1.4,1.3,1.4c0,0,0.1,0,0.1,0h5.4
			c0.7,0,1.4-0.6,1.4-1.3c0-0.7-0.6-1.4-1.3-1.4C6.8,13.4,6.8,13.4,6.7,13.4z"/>
		<path id="Path_870" class="st3" d="M23.3,4.3l-3.8,3.8C19,8.6,18.9,9.5,19.4,10c0.5,0.6,1.3,0.6,1.9,0.1c0,0,0.1-0.1,0.1-0.1
			l3.8-3.8c0.5-0.5,0.5-1.4,0-1.9c0,0,0,0,0,0C24.7,3.8,23.9,3.8,23.3,4.3z"/>
		<g id="Group_462" transform="translate(3.921 19.145)">
			<path id="Path_871" class="st3" d="M10.9,3.7c-0.7,0-1.3,0.6-1.4,1.4v2.7c0,0.7,0.6,1.4,1.3,1.4s1.4-0.6,1.4-1.3c0,0,0-0.1,0-0.1
				V5C12.2,4.3,11.6,3.7,10.9,3.7z"/>
			<path id="Path_872" class="st3" d="M4.2,0.4L0.4,4.2c-0.6,0.5-0.6,1.3-0.1,1.9s1.3,0.6,1.9,0.1c0,0,0.1-0.1,0.1-0.1l3.8-3.8
				c0.5-0.5,0.5-1.4,0-1.9c0,0,0,0,0,0C5.6-0.1,4.7-0.1,4.2,0.4z"/>
		</g>
		<path id="Path_873" class="st3" d="M14.8,0c-0.7,0-1.3,0.6-1.4,1.4v5.4c0,0.7,0.6,1.4,1.3,1.4c0.7,0,1.4-0.6,1.4-1.3
			c0,0,0-0.1,0-0.1V1.4C16.1,0.6,15.5,0,14.8,0z"/>
		<path id="Path_874" class="st3" d="M6.2,4.3C5.7,3.8,4.8,3.9,4.3,4.4c-0.5,0.5-0.5,1.3,0,1.8L8.1,10c0.6,0.5,1.4,0.4,1.9-0.1
			c0.5-0.5,0.5-1.3,0-1.8L6.2,4.3z"/>
	</g>
</g>
<text transform="matrix(1 0 0 1 3.7536 19.5118)" class="st3 st4 st5">Rengin Ekin</text>
</svg>
